<?xml version="1.0" encoding="utf-8"?>
<!-- Generator: Adobe Illustrator 21.0.0, SVG Export Plug-In . SVG Version: 6.00 Build 0)  -->
<svg version="1.1" id="Layer_2" xmlns="http://www.w3.org/2000/svg" xmlns:xlink="http://www.w3.org/1999/xlink" x="0px" y="0px"
	 viewBox="0 0 2974.9 474.6" style="enable-background:new 0 0 2974.9 474.6;" xml:space="preserve">
<style type="text/css">
	.st0{fill:#6E6F71;}
	.st1{fill:#E68A24;}
	.st2{fill:#E78B24;}
</style>
<path class="st0" d="M2958,138.7l1.7-0.2l0.8-0.4l0.8-1.1l0.1-0.6l-0.2-1.8l-0.1-0.1l-0.7-0.8l-0.5-0.3l-0.1,0l-1.4-0.2h-4.6v5.6
	H2958z M2961.2,130.8c-0.9-0.3-1.8-0.4-2.7-0.4h-7.2v19.3h2.6v-8.3h2.1l1.3,0.2l0.4,0.2l1.2,1.4l1.1,2c0.8,1.5,1.6,3,2.4,4.6h3.2
	l-2.9-5.5l-0.8-1.3l-0.9-1.1l-0.7-0.7l1.4-0.6l0.2-0.1l0.5-0.4l0.5-0.5l0.4-0.5l0.3-0.6l0.2-0.7l0.2-0.9l0-1.6l0-0.3l-0.2-0.9
	l-0.3-0.8l-0.6-1l-0.6-0.6l-0.9-0.6L2961.2,130.8 M2957.8,126c-7.8,0-14.1,6.3-14.1,14.1c0,7.8,6.3,14.1,14.1,14.1
	c7.8,0,14.1-6.3,14.1-14.1C2971.9,132.3,2965.5,126,2957.8,126 M2957.8,123c9.5,0,17.2,7.7,17.2,17.1c0,9.4-7.7,17.2-17.2,17.2
	c-9.5,0-17.2-7.7-17.2-17.2C2940.6,130.6,2948.3,123,2957.8,123"/>
<path class="st0" d="M625.6,312.5L625.6,312.5h117.8c8.2,0,14.8-6.7,14.8-14.8c0-8.2-6.6-14.8-14.8-14.8h-99.1
	c-9.5,0-17.2-7.7-17.2-17.2v-93.6c0-9.5,7.7-17.2,17.2-17.2h99.1c8.2,0,14.8-6.7,14.8-14.8c0-8.1-6.6-14.8-14.8-14.8H625.6
	c-25.8,0-46.8,21-46.8,46.8v93.6C578.8,291.5,599.8,312.5,625.6,312.5"/>
<path class="st0" d="M2674.8,233.7L2674.8,233.7h-62.4c-8.2,0-14.8-6.7-14.8-14.8c0-8.2,6.7-14.8,14.8-14.8h62.4
	c8.2,0,14.8,6.6,14.8,14.8C2689.6,227.1,2683,233.7,2674.8,233.7 M2580.4,312.5L2580.4,312.5h117.8c8.2,0,14.8-6.7,14.8-14.8
	c0-8.2-6.7-14.8-14.8-14.8h-99.1c-9.5,0-17.2-7.7-17.2-17.2v-93.6c0-9.5,7.7-17.2,17.2-17.2h99.1c8.2,0,14.8-6.7,14.8-14.8
	c0-8.1-6.7-14.8-14.8-14.8h-117.8c-25.8,0-46.8,21-46.8,46.8v93.6C2533.6,291.5,2554.6,312.5,2580.4,312.5"/>
<path class="st0" d="M1030.8,312.5L1030.8,312.5h117.8c8.2,0,14.8-6.7,14.8-14.8c0-8.2-6.7-14.8-14.8-14.8h-99.1
	c-9.5,0-17.2-7.7-17.2-17.2V140.1c0-8.1-6.7-14.8-14.8-14.8h-18.7c-8.1,0-14.8,6.7-14.8,14.8v125.6
	C984,291.5,1005.1,312.5,1030.8,312.5"/>
<path class="st0" d="M2049.1,312.5h-101.4c-25.8,0-46.8-21-46.8-46.8v-14.8c0-25.8,21-46.8,46.8-46.8h69.4c8.2,0,14.8,6.6,14.8,14.8
	c0,8.2-6.7,14.8-14.8,14.8h-50.7c-9.5,0-17.2,7.7-17.2,17.2v14.8c0,9.4,7.7,17.2,17.2,17.2h64c9.5,0,17.2-7.7,17.2-17.2v-93.6
	c0-9.5-7.7-17.2-17.2-17.2h-99.1c-8.2,0-14.8-6.7-14.8-14.8c0-8.1,6.7-14.8,14.8-14.8h117.8c25.8,0,46.8,21,46.8,46.8v93.6
	C2095.9,291.5,2074.8,312.5,2049.1,312.5"/>
<path class="st0" d="M1648.1,125.3h71c25.8,0,46.8,21,46.8,46.8v125.6c0,8.1-6.7,14.8-14.8,14.8h-0.2h-18.4h-0.2
	c-8.2,0-14.8-6.7-14.8-14.8V172.1c0-9.5-7.7-17.2-17.2-17.2h-33.6c-9.4,0-17.1,7.7-17.1,17.2v125.6c0,8.1-6.7,14.8-14.8,14.8h-0.1
	h-18.4h-0.2c-8.2,0-14.8-6.7-14.8-14.8V172.1C1601.3,146.3,1622.3,125.3,1648.1,125.3"/>
<path class="st0" d="M1835.3,125.3h-54.6c-8.2,0-14.8,6.7-14.8,14.8c0,8.2,6.7,14.8,14.8,14.8h35.9c9.5,0,17.2,7.7,17.2,17.2v125.6
	c0,8.1,6.6,14.8,14.8,14.8h0.2h18.4h0.2c8.2,0,14.8-6.7,14.8-14.8V172.1C1882.1,146.3,1861.1,125.3,1835.3,125.3"/>
<path class="st0" d="M2745,125.3L2745,125.3c-8.2,0-14.8,6.7-14.8,14.8c0,8.2,6.7,14.8,14.8,14.8h42.9c4.3,0,7.8,3.5,7.8,7.8v135
	c0,8.1,6.7,14.8,14.8,14.8h0.1h18.4h0.2c8.2,0,14.8-6.7,14.8-14.8v-135c0-4.3,3.5-7.8,7.8-7.8h42.9c8.2,0,14.8-6.7,14.8-14.8
	c0-8.1-6.7-14.8-14.8-14.8H2745z"/>
<path class="st0" d="M1466.3,233.7L1466.3,233.7h50.7c9.5,0,17.2,7.7,17.2,17.2v46.8c0,8.2,6.6,14.8,14.8,14.8h0.2h18.4h0.2
	c8.2,0,14.8-6.7,14.8-14.8v-46.8c0-12.4-4.8-23.6-12.7-32c7.9-8.4,12.7-19.6,12.7-32v-14.8c0-25.8-21-46.8-46.8-46.8h-101.4
	c-25.8,0-46.8,21-46.8,46.8v125.6c0,8.2,6.7,14.8,14.8,14.8h0.2h18.4h0.2c8.2,0,14.8-6.7,14.8-14.8V172.1c0-9.5,7.7-17.2,17.2-17.2
	h64c9.5,0,17.2,7.7,17.2,17.2v14.8c0,9.4-7.7,17.2-17.2,17.2h-50.7c-8.2,0-14.8,6.6-14.8,14.8
	C1451.5,227.1,1458.1,233.7,1466.3,233.7"/>
<path class="st0" d="M2193.4,233.7L2193.4,233.7h50.7c9.4,0,17.2,7.7,17.2,17.2v46.8c0,8.2,6.7,14.8,14.8,14.8h0.2h18.4h0.2
	c8.2,0,14.8-6.7,14.8-14.8v-46.8c0-12.4-4.8-23.6-12.7-32c7.9-8.4,12.7-19.6,12.7-32v-14.8c0-25.8-21-46.8-46.8-46.8h-101.4
	c-25.8,0-46.8,21-46.8,46.8v125.6c0,8.2,6.7,14.8,14.8,14.8h0.2h18.4h0.2c8.2,0,14.8-6.7,14.8-14.8V172.1c0-9.5,7.7-17.2,17.2-17.2
	h64c9.4,0,17.2,7.7,17.2,17.2v14.8c0,9.4-7.7,17.2-17.2,17.2h-50.7c-8.2,0-14.8,6.6-14.8,14.8
	C2178.6,227.1,2185.2,233.7,2193.4,233.7"/>
<path class="st0" d="M2384.4,233.7h10.1c3.6,0.1,7,1.6,9.4,3.9l70.5,70.5c2.7,2.7,6.4,4.4,10.5,4.4h23.6c8.2,0,14.8-6.7,14.8-14.8
	c0-4-1.7-7.8-4.4-10.4l-62.2-62.3c-1.5-1.6-2.5-3.7-2.5-6.1c0-2.3,1-4.5,2.5-6.1l62.2-62.3c2.7-2.7,4.4-6.4,4.4-10.5
	c0-8.2-6.7-14.8-14.8-14.8h-23.6c-4.1,0-7.8,1.7-10.5,4.4l-70.4,70.4c-2.5,2.4-5.9,4-9.6,4h-0.2h-9.7c-4.3,0-7.8-3.5-7.8-7.8v-56.2
	c0-8.2-6.7-14.8-14.8-14.8h-18.7c-8.2,0-14.8,6.6-14.8,14.8v157.5c0,8.2,6.6,14.8,14.8,14.8h0.2h18.4h0.2c8.2,0,14.8-6.7,14.8-14.8
	v-56.2C2376.7,237.3,2380.2,233.8,2384.4,233.7"/>
<path class="st0" d="M899.8,282.9c9.4,0,17.2-7.7,17.2-17.2v-93.6c0-9.4-7.7-17.2-17.2-17.2h-64c-9.5,0-17.2,7.7-17.2,17.2v93.6
	c0,9.4,7.7,17.2,17.2,17.2H899.8z M770.3,172.1L770.3,172.1c0-25.8,21-46.8,46.8-46.8h101.4c25.8,0,46.8,21,46.8,46.8v93.6
	c0,25.8-21,46.8-46.8,46.8H817.1c-25.8,0-46.8-21-46.8-46.8V172.1z"/>
<path class="st0" d="M1303.3,282.9c9.4,0,17.2-7.7,17.2-17.2v-93.6c0-9.4-7.7-17.2-17.2-17.2h-64c-9.5,0-17.2,7.7-17.2,17.2v93.6
	c0,9.4,7.7,17.2,17.2,17.2H1303.3z M1173.8,172.1L1173.8,172.1c0-25.8,21-46.8,46.8-46.8H1322c25.8,0,46.8,21,46.8,46.8v93.6
	c0,25.8-21,46.8-46.8,46.8h-101.4c-25.8,0-46.8-21-46.8-46.8V172.1z"/>
<path class="st1" d="M168.5,221.4c29.2,0,53-23.8,53-52.9c0-29.2-23.8-53-53-53c-29.2,0-53,23.8-53,53
	C115.5,197.7,139.3,221.4,168.5,221.4"/>
<path class="st0" d="M53,452.5c29.2,0,52.9-23.8,52.9-53c0-29.2-23.8-53-52.9-53c-29.2,0-53,23.8-53,53C0,428.8,23.8,452.5,53,452.5
	"/>
<path class="st0" d="M399.6,207c21.2,0,38.5-17.3,38.5-38.5S420.8,130,399.6,130c-21.2,0-38.5,17.3-38.5,38.5S378.4,207,399.6,207"
	/>
<path class="st0" d="M399.6,452.5c29.2,0,52.9-23.8,52.9-53c0-29.2-23.8-53-52.9-53c-29.2,0-53,23.8-53,53
	C346.6,428.8,370.4,452.5,399.6,452.5"/>
<path class="st0" d="M284.1,337c29.2,0,53-23.8,53-53c0-29.2-23.8-53-53-53c-29.2,0-53,23.8-53,53C231.1,313.2,254.9,337,284.1,337"
	/>
<path class="st0" d="M53,105.9c29.2,0,52.9-23.8,52.9-53C105.9,23.8,82.1,0,53,0C23.8,0,0,23.8,0,52.9C0,82.1,23.8,105.9,53,105.9"
	/>
<path class="st0" d="M168.5,438.1c21.2,0,38.5-17.3,38.5-38.5c0-21.2-17.3-38.5-38.5-38.5c-21.2,0-38.5,17.3-38.5,38.5
	C130,420.8,147.3,438.1,168.5,438.1"/>
<path class="st0" d="M53,322.6c21.2,0,38.5-17.3,38.5-38.5c0-21.2-17.3-38.5-38.5-38.5c-21.2,0-38.5,17.3-38.5,38.5
	C14.4,305.2,31.7,322.6,53,322.6"/>
<path class="st0" d="M284.1,91.5c21.2,0,38.5-17.3,38.5-38.5c0-21.2-17.3-38.5-38.5-38.5c-21.2,0-38.5,17.3-38.5,38.5
	C245.5,74.2,262.8,91.5,284.1,91.5"/>
<path class="st0" d="M399.6,91.5c21.2,0,38.5-17.3,38.5-38.5c0-21.2-17.3-38.5-38.5-38.5c-21.2,0-38.5,17.3-38.5,38.5
	C361.1,74.2,378.4,91.5,399.6,91.5"/>
<path class="st0" d="M168.5,308.1c13.3,0,24.1-10.8,24.1-24.1c0-13.2-10.8-24.1-24.1-24.1c-13.3,0-24.1,10.8-24.1,24.1
	C144.4,297.3,155.2,308.1,168.5,308.1"/>
<path class="st0" d="M284.1,423.6c13.3,0,24.1-10.8,24.1-24.1c0-13.2-10.8-24.1-24.1-24.1c-13.3,0-24.1,10.8-24.1,24.1
	C260,412.9,270.8,423.6,284.1,423.6"/>
<path class="st0" d="M53,192.6c13.2,0,24.1-10.8,24.1-24.1c0-13.3-10.8-24.1-24.1-24.1c-13.3,0-24.1,10.8-24.1,24.1
	C28.9,181.8,39.7,192.6,53,192.6"/>
<path class="st0" d="M168.5,77c13.3,0,24.1-10.8,24.1-24.1c0-13.3-10.8-24.1-24.1-24.1c-13.3,0-24.1,10.8-24.1,24.1
	C144.4,66.2,155.2,77,168.5,77"/>
<path class="st0" d="M284.1,192.6c13.3,0,24.1-10.8,24.1-24.1c0-13.3-10.8-24.1-24.1-24.1c-13.3,0-24.1,10.8-24.1,24.1
	C260,181.8,270.8,192.6,284.1,192.6"/>
<path class="st0" d="M399.6,308.1c13.3,0,24.1-10.8,24.1-24.1c0-13.2-10.8-24.1-24.1-24.1c-13.3,0-24.1,10.8-24.1,24.1
	C375.5,297.3,386.3,308.1,399.6,308.1"/>
<g>
	<path class="st2" d="M2044.8,454.9c0,1.3-0.9,1.9-2.6,1.9h-3.5c-1.4,0-2.6-0.6-3.6-1.9l-21.6-30.5h-12.2v29.4
		c0,0.9-0.3,1.6-0.8,2.2c-0.5,0.5-1.3,0.8-2.2,0.8h-2.3c-0.9,0-1.6-0.3-2.2-0.8c-0.5-0.5-0.8-1.3-0.8-2.2v-29.4h-12.2l-21.9,30.5
		c-0.8,1.3-2,1.9-3.6,1.9h-3.5c-1.7,0-2.6-0.6-2.6-1.9c0-0.5,0.2-1,0.7-1.8l23.9-33.6l-21.3-30.2c-0.4-0.6-0.5-1.2-0.5-1.6
		c0-1.3,0.9-1.9,2.6-1.9h2.7c1.4,0,2.5,0.7,3.6,2.1l20.1,28.7h12v-27.7c0-0.9,0.3-1.6,0.8-2.2c0.5-0.5,1.3-0.8,2.2-0.8h2.3
		c0.9,0,1.6,0.3,2.2,0.8c0.5,0.5,0.8,1.3,0.8,2.2v27.7h11.5l20.4-28.7c1-1.4,2.2-2.1,3.6-2.1h2.7c0.8,0,1.5,0.2,2,0.5
		c0.5,0.3,0.8,0.8,0.8,1.4c0,0.4-0.2,0.9-0.7,1.6l-21.3,30.2l23.9,33.6C2044.5,453.7,2044.8,454.3,2044.8,454.9z"/>
	<path class="st2" d="M2117.8,386.6c0.5,0.5,0.8,1.1,0.8,1.8v65.5c0,0.9-0.3,1.6-0.8,2.2c-0.6,0.5-1.3,0.8-2.2,0.8h-2.3
		c-0.9,0-1.6-0.3-2.2-0.8c-0.5-0.5-0.8-1.3-0.8-2.2v-54.1l-42.1,55.1c-1,1.4-2.2,2-3.5,2h-2.6c-0.7,0-1.4-0.3-1.9-0.8
		c-0.5-0.5-0.8-1.2-0.8-1.9v-65.3c0-0.9,0.3-1.6,0.8-2.2c0.5-0.5,1.3-0.8,2.2-0.8h2.3c0.9,0,1.6,0.3,2.2,0.8
		c0.5,0.5,0.8,1.3,0.8,2.2v54.1l42.1-55.1c1-1.4,2.2-2.1,3.5-2.1h2.6C2116.6,385.8,2117.2,386,2117.8,386.6z"/>
	<path class="st2" d="M2147.8,455.1c-4.1-2-7.1-4.6-9-7.5c-1.9-3-2.9-5.9-2.9-8.7c0-0.8,0.3-1.5,0.8-2c0.5-0.5,1.2-0.7,2-0.7h2.3
		c1.7,0,2.8,1,3.3,2.9c1.1,4.1,3.3,7,6.8,8.7c3.4,1.7,7.9,2.5,13.5,2.5c5.3,0,9.7-1.1,13.2-3.3c3.5-2.2,5.3-5.5,5.3-9.8
		c0-8.8-5-13.1-14.9-13.1h-7.4c-0.9,0-1.6-0.3-2.2-0.8c-0.5-0.5-0.8-1.3-0.8-2.2v-1.9c0-0.9,0.3-1.6,0.8-2.2
		c0.5-0.5,1.3-0.8,2.2-0.8h6.4c8.8,0,13.1-3.5,13.1-10.5c0-3.7-1.3-6.9-4-9.4c-2.7-2.5-7-3.8-13-3.8c-5.7,0-9.9,1-12.4,3
		c-2.6,2-4.4,5.2-5.5,9.6c-0.5,1.9-1.5,2.9-3.3,2.9h-2.3c-0.8,0-1.5-0.3-2-0.8c-0.5-0.5-0.8-1.2-0.8-2c0-6,2.3-11,7-14.8
		c4.7-3.9,11.1-5.8,19.4-5.8c5.9,0,10.8,1,14.6,3.1c3.8,2,6.6,4.6,8.3,7.7c1.7,3.1,2.5,6.1,2.5,9.1c0,3.9-0.6,7-1.8,9.2
		c-1.2,2.2-3.3,4.1-6.4,5.8c4,1.5,6.8,3.8,8.5,6.9c1.6,3.1,2.5,6.9,2.5,11.5c0,6.8-2.6,12-7.9,15.5c-5.3,3.5-12,5.2-20.3,5.2
		C2157.1,458.2,2151.9,457.2,2147.8,455.1z"/>
	<path class="st2" d="M2208.8,456c-0.5-0.5-0.8-1.3-0.8-2.2v-65.1c0-0.9,0.3-1.6,0.8-2.2c0.5-0.5,1.3-0.8,2.2-0.8h2.3
		c0.9,0,1.6,0.3,2.2,0.8c0.5,0.5,0.8,1.3,0.8,2.2v27.7h42.7v-27.7c0-0.9,0.3-1.6,0.8-2.2c0.6-0.5,1.3-0.8,2.2-0.8h2.3
		c0.9,0,1.6,0.3,2.2,0.8c0.5,0.5,0.8,1.3,0.8,2.2v65.1c0,0.9-0.3,1.6-0.8,2.2c-0.6,0.5-1.3,0.8-2.2,0.8h-2.3c-0.9,0-1.6-0.3-2.2-0.8
		c-0.5-0.5-0.8-1.3-0.8-2.2v-29.4h-42.7v29.4c0,0.9-0.3,1.6-0.8,2.2c-0.5,0.5-1.3,0.8-2.2,0.8h-2.3
		C2210.1,456.8,2209.4,456.6,2208.8,456z"/>
	<path class="st2" d="M2290.3,456c-0.5-0.5-0.8-1.3-0.8-2.2v-65.1c0-0.9,0.3-1.6,0.8-2.2c0.5-0.5,1.3-0.8,2.2-0.8h2.3
		c0.9,0,1.6,0.3,2.2,0.8c0.5,0.5,0.8,1.3,0.8,2.2v20.8h16.4c17.2,0,25.8,8.1,25.8,24.2c0,8-2.3,13.9-6.8,17.6
		c-4.5,3.7-11.6,5.5-21.1,5.5h-19.7C2291.6,456.8,2290.8,456.6,2290.3,456z M2313.4,448.9c6.5,0,11.1-1.1,14-3.4s4.3-6.2,4.3-11.8
		c0-5.6-1.4-9.7-4.3-12.3c-2.9-2.6-7.5-4-14-4h-15.6v31.4H2313.4z"/>
	<path class="st2" d="M2390.6,456c-0.5-0.5-0.8-1.3-0.8-2.2v-65.1c0-0.9,0.3-1.6,0.8-2.2c0.5-0.5,1.3-0.8,2.2-0.8h26.9
		c7.4,0,13.1,1.7,17.3,5.1c4.1,3.4,6.2,7.9,6.2,13.5c0,4.1-0.8,7.3-2.3,9.4c-1.5,2.2-3.9,4.1-7.3,5.6c3.5,1.3,6.2,3.6,8.1,7
		c1.9,3.4,2.9,6.9,2.9,10.7c0,6.4-2.2,11.3-6.5,14.7c-4.3,3.4-10.2,5.1-17.7,5.1h-27.6C2391.9,456.8,2391.2,456.6,2390.6,456z
		 M2418.4,417.1c5,0,9-1.1,12-3.4c3-2.3,4.5-5.4,4.5-9.3c0-3.8-1.4-6.6-4.3-8.2c-2.9-1.6-6.9-2.5-12.2-2.5h-20.2v23.4H2418.4z
		 M2419.3,448.9c5.2,0,9.3-1,12.4-3.1c3-2.1,4.6-5,4.6-8.8c0-4.1-1.4-7.1-4.2-9.1s-7-2.9-12.8-2.9h-21.2v23.9H2419.3z"/>
	<path class="st2" d="M2557.9,473.8c-0.5-0.5-0.8-1.3-0.8-2.2v-14.8h-54.9c-0.9,0-1.6-0.3-2.2-0.8c-0.5-0.5-0.8-1.3-0.8-2.2v-65.1
		c0-0.9,0.3-1.6,0.8-2.2c0.5-0.5,1.3-0.8,2.2-0.8h2.3c0.9,0,1.6,0.3,2.2,0.8c0.5,0.5,0.8,1.3,0.8,2.2v60.1h39.9v-60.1
		c0-0.9,0.3-1.6,0.8-2.2c0.5-0.5,1.3-0.8,2.2-0.8h2.3c0.9,0,1.6,0.3,2.2,0.8c0.5,0.5,0.8,1.3,0.8,2.2l-0.1,60.1h6.8
		c0.9,0,1.6,0.3,2.2,0.8c0.5,0.5,0.8,1.3,0.8,2.2v19.7c0,0.9-0.3,1.6-0.8,2.2c-0.5,0.5-1.3,0.8-2.2,0.8h-2.3
		C2559.2,474.6,2558.5,474.3,2557.9,473.8z"/>
	<path class="st2" d="M2582.1,456c-0.5-0.5-0.8-1.3-0.8-2.2v-65.1c0-0.9,0.3-1.6,0.8-2.2c0.5-0.5,1.3-0.8,2.2-0.8h26.9
		c7.4,0,13.1,1.7,17.3,5.1c4.1,3.4,6.2,7.9,6.2,13.5c0,4.1-0.8,7.3-2.3,9.4c-1.5,2.2-3.9,4.1-7.3,5.6c3.5,1.3,6.2,3.6,8.1,7
		c1.9,3.4,2.9,6.9,2.9,10.7c0,6.4-2.2,11.3-6.5,14.7c-4.3,3.4-10.2,5.1-17.7,5.1h-27.6C2583.4,456.8,2582.7,456.6,2582.1,456z
		 M2609.9,417.1c5,0,9-1.1,12-3.4c3-2.3,4.5-5.4,4.5-9.3c0-3.8-1.4-6.6-4.3-8.2c-2.9-1.6-6.9-2.5-12.2-2.5h-20.2v23.4H2609.9z
		 M2610.9,448.9c5.2,0,9.3-1,12.4-3.1c3-2.1,4.6-5,4.6-8.8c0-4.1-1.4-7.1-4.2-9.1s-7-2.9-12.8-2.9h-21.2v23.9H2610.9z"/>
	<path class="st2" d="M2660.9,449.7c-5.3-5.7-8.3-13.3-9-22.9l-0.1-5.5l0.1-5.5c0.7-9.5,3.7-17.1,9-22.8c5.2-5.8,12.2-8.6,21-8.6
		c9.5,0,16.9,3.1,22.2,9.4c5.3,6.3,8,14.9,8,25.8v2c0,0.9-0.3,1.6-0.9,2.2c-0.6,0.5-1.3,0.8-2.3,0.8h-48.7v1.4
		c0.2,4.3,1.2,8.3,2.9,12c1.8,3.7,4.2,6.7,7.4,8.9s6.9,3.3,11.2,3.3c5,0,9.1-1,12.2-2.9c3.1-2,5.4-3.9,6.8-6c0.8-1.1,1.4-1.8,1.8-2
		c0.4-0.3,1.2-0.4,2.3-0.4h2.2c0.8,0,1.5,0.2,2.1,0.7c0.5,0.5,0.8,1,0.8,1.8c0,1.9-1.2,4.2-3.6,6.9c-2.4,2.7-5.8,5-10.1,7
		c-4.3,2-9.1,2.9-14.5,2.9C2673.1,458.2,2666.2,455.4,2660.9,449.7z M2703.7,417.1v-0.5c0-7-2-12.8-6-17.4c-4-4.6-9.3-6.8-15.9-6.8
		c-6.7,0-11.9,2.3-15.8,6.8c-3.9,4.6-5.8,10.3-5.8,17.4v0.5H2703.7z"/>
	<path class="st2" d="M2749.6,456c-0.6-0.5-0.8-1.3-0.8-2.2v-60.2h-25c-0.9,0-1.6-0.3-2.2-0.8c-0.5-0.5-0.8-1.3-0.8-2.2v-1.9
		c0-0.9,0.3-1.6,0.8-2.2c0.6-0.5,1.3-0.8,2.2-0.8h58.4c0.9,0,1.6,0.3,2.2,0.8c0.5,0.5,0.8,1.3,0.8,2.2v1.9c0,0.9-0.3,1.6-0.8,2.2
		c-0.5,0.5-1.3,0.8-2.2,0.8h-25v60.2c0,0.9-0.3,1.6-0.8,2.2c-0.6,0.5-1.3,0.8-2.2,0.8h-2.3C2750.9,456.8,2750.1,456.6,2749.6,456z"
		/>
	<path class="st2" d="M2803.5,449.7c-5.3-5.7-8.3-13.3-9-22.9l-0.1-5.5l0.1-5.5c0.7-9.5,3.7-17.1,9-22.8c5.2-5.8,12.2-8.6,21-8.6
		c9.5,0,16.9,3.1,22.2,9.4c5.3,6.3,8,14.9,8,25.8v2c0,0.9-0.3,1.6-0.9,2.2c-0.6,0.5-1.3,0.8-2.3,0.8h-48.7v1.4
		c0.2,4.3,1.2,8.3,2.9,12c1.8,3.7,4.2,6.7,7.4,8.9s6.9,3.3,11.2,3.3c5,0,9.1-1,12.2-2.9c3.1-2,5.4-3.9,6.8-6c0.8-1.1,1.4-1.8,1.8-2
		c0.4-0.3,1.2-0.4,2.3-0.4h2.2c0.8,0,1.5,0.2,2.1,0.7c0.5,0.5,0.8,1,0.8,1.8c0,1.9-1.2,4.2-3.6,6.9c-2.4,2.7-5.8,5-10.1,7
		c-4.3,2-9.1,2.9-14.5,2.9C2815.7,458.2,2808.7,455.4,2803.5,449.7z M2846.2,417.1v-0.5c0-7-2-12.8-6-17.4c-4-4.6-9.3-6.8-15.9-6.8
		c-6.7,0-11.9,2.3-15.8,6.8c-3.9,4.6-5.8,10.3-5.8,17.4v0.5H2846.2z"/>
</g>
</svg>
