<?xml version="1.0" encoding="utf-8"?>
<!-- Generator: Adobe Illustrator 21.0.0, SVG Export Plug-In . SVG Version: 6.00 Build 0)  -->
<svg version="1.1" id="Layer_1" xmlns="http://www.w3.org/2000/svg" xmlns:xlink="http://www.w3.org/1999/xlink" x="0px" y="0px"
	 viewBox="0 0 90.6 62.7" style="enable-background:new 0 0 90.6 62.7;" xml:space="preserve">
<style type="text/css">
	.st0{fill:#FFFFFF;}
</style>
<title>youtube play logo</title>
<g id="Layer_2">
	<g id="Layer_1-2">
		<path class="st0" d="M88.7,9.8c-1.1-3.9-4.1-6.9-8-7.9C73.6,0,45.3,0,45.3,0S17.5-0.1,10.4,1.7c-3.9,1-7.7,4.2-8.7,8.1
			C-0.2,16.8,0,31.4,0,31.4s-0.2,14.6,1.7,21.6c1,3.8,4.8,7,8.7,8c7.1,1.9,34.9,1.7,34.9,1.7s27.8,0.1,34.9-1.7c3.9-1,7.5-4.2,8.6-8
			c1.9-7,1.9-21.6,1.9-21.6S90.6,16.8,88.7,9.8z M36.6,45.3V17.4l22.6,13.9L36.6,45.3z"/>
	</g>
</g>
</svg>
