<?xml version="1.0" encoding="utf-8"?>
<!-- Generator: Adobe Illustrator 21.0.0, SVG Export Plug-In . SVG Version: 6.00 Build 0)  -->
<svg version="1.1" id="Layer_1" xmlns="http://www.w3.org/2000/svg" xmlns:xlink="http://www.w3.org/1999/xlink" x="0px" y="0px"
	 viewBox="0 0 409.7 91.5" style="enable-background:new 0 0 409.7 91.5;" xml:space="preserve">
<style type="text/css">
	.st0{fill:#FFFFFF;}
</style>
<g>
	<g>
		<path id="lozenge-path" class="st0" d="M127.9,14.3c-1.5-5.6-5.9-10-11.6-11.6C106.2,0,65.3,0,65.3,0s-40.8,0-51,2.7
			C8.7,4.2,4.2,8.6,2.7,14.3C0,24.5,0,45.7,0,45.7S0,67,2.7,77.2c1.5,5.6,5.9,10,11.6,11.6c10.2,2.7,51,2.7,51,2.7s40.9,0,51-2.7
			c5.6-1.5,10-5.9,11.6-11.6c2.7-10.2,2.7-31.4,2.7-31.4S130.7,24.5,127.9,14.3z"/>
		<polygon id="play-polygon" class="st0" points="52.3,65.3 86.2,45.7 52.3,26.1 		"/>
	</g>
	<g>
		<g id="youtube-paths">
			<path class="st0" d="M189.6,83.2c-2.6-1.7-4.4-4.4-5.5-8.1c-1.1-3.7-1.6-8.6-1.6-14.7v-8.3c0-6.2,0.6-11.1,1.9-14.9
				c1.2-3.7,3.2-6.5,5.8-8.2c2.6-1.7,6.1-2.6,10.4-2.6c4.2,0,7.6,0.9,10.2,2.6s4.4,4.5,5.6,8.2c1.2,3.7,1.8,8.6,1.8,14.8v8.3
				c0,6.1-0.6,11-1.7,14.7c-1.1,3.7-3,6.4-5.6,8.1c-2.6,1.7-6.1,2.6-10.5,2.6C195.8,85.8,192.2,85,189.6,83.2z M204.1,74.2
				c0.7-1.9,1.1-4.9,1.1-9.1V47.2c0-4.1-0.4-7.1-1.1-9c-0.7-1.9-2-2.8-3.8-2.8c-1.7,0-3,1-3.7,2.8c-0.7,1.9-1.1,4.9-1.1,9v17.9
				c0,4.2,0.3,7.3,1,9.1c0.7,1.9,1.9,2.8,3.7,2.8C202.2,77,203.4,76.1,204.1,74.2z"/>
			<path class="st0" d="M388.1,60.5v2.9c0,3.7,0.1,6.4,0.3,8.3c0.2,1.8,0.7,3.2,1.4,4c0.7,0.8,1.7,1.3,3.2,1.3c1.9,0,3.3-0.7,4-2.2
				c0.7-1.5,1.1-4,1.2-7.5l11.1,0.6c0.1,0.5,0.1,1.2,0.1,2.1c0,5.3-1.5,9.2-4.3,11.9s-7,3.9-12.3,3.9c-6.4,0-10.8-2-13.4-6
				c-2.6-4-3.8-10.1-3.8-18.5v-10c0-8.6,1.3-14.9,4-18.8c2.6-3.9,7.2-5.9,13.6-5.9c4.4,0,7.8,0.8,10.2,2.4c2.4,1.6,4,4.1,5,7.6
				c1,3.4,1.5,8.2,1.5,14.2v9.8L388.1,60.5L388.1,60.5z M389.7,36.4c-0.6,0.8-1.1,2.1-1.3,4c-0.2,1.8-0.3,4.6-0.3,8.4v4.1h9.4v-4.1
				c0-3.7-0.1-6.5-0.4-8.4c-0.2-1.9-0.7-3.2-1.4-4c-0.6-0.8-1.7-1.2-3-1.2C391.4,35.2,390.4,35.6,389.7,36.4z"/>
			<path id="XMLID_41_" class="st0" d="M158.3,59.5l-14.7-53h12.8l5.1,24c1.3,5.9,2.3,11,2.9,15.1h0.4c0.4-3,1.4-8,2.9-15L173,6.5
				h12.8l-14.8,53v25.4h-12.7V59.5z"/>
			<path id="XMLID_38_" class="st0" d="M259.8,27.6v57.3h-10.1l-1.1-7h-0.3c-2.7,5.3-6.9,7.9-12.3,7.9c-3.8,0-6.6-1.2-8.4-3.7
				s-2.7-6.4-2.7-11.7V27.6h12.9v42c0,2.6,0.3,4.4,0.8,5.5c0.6,1.1,1.5,1.6,2.8,1.6c1.1,0,2.2-0.3,3.2-1c1-0.7,1.8-1.6,2.3-2.6V27.6
				H259.8z"/>
			<path id="XMLID_36_" class="st0" d="M326,27.6v57.3h-10.1l-1.1-7h-0.3c-2.7,5.3-6.9,7.9-12.3,7.9c-3.8,0-6.6-1.2-8.4-3.7
				c-1.8-2.5-2.7-6.4-2.7-11.7V27.6h12.9v42c0,2.6,0.3,4.4,0.8,5.5c0.6,1.1,1.5,1.6,2.8,1.6c1.1,0,2.2-0.3,3.2-1
				c1-0.7,1.8-1.6,2.3-2.6V27.6H326z"/>
			<path id="XMLID_35_" class="st0" d="M294.9,16.9h-12.8v68h-12.6v-68h-12.8V6.5h38.2L294.9,16.9L294.9,16.9z"/>
			<path class="st0" d="M368.6,36.8c-0.8-3.6-2-6.2-3.8-7.9c-1.7-1.6-4.1-2.4-7.2-2.4c-2.4,0-4.6,0.7-6.6,2
				c-2.1,1.3-3.6,3.1-4.8,5.3h-0.1V3.6h-12.4v81.3h10.6l1.3-5.4h0.3c1,1.9,2.5,3.5,4.5,4.6c2,1.1,4.2,1.7,6.6,1.7c4.4,0,7.6-2,9.6-6
				s3.1-10.3,3.1-18.8v-9.1C369.8,45.4,369.4,40.4,368.6,36.8z M356.8,60.1c0,4.2-0.2,7.4-0.5,9.8c-0.3,2.4-0.9,4.1-1.7,5.1
				c-0.8,1-1.9,1.5-3.3,1.5c-1.1,0-2-0.2-3-0.7c-0.9-0.5-1.6-1.2-2.2-2.2V41c0.4-1.6,1.2-2.8,2.2-3.8s2.2-1.5,3.5-1.5
				c1.3,0,2.3,0.5,3,1.5s1.2,2.8,1.5,5.2c0.3,2.4,0.4,5.9,0.4,10.4L356.8,60.1L356.8,60.1z"/>
		</g>
	</g>
</g>
</svg>
